<svg width="55" height="50" viewBox="0 0 55 50" fill="none" xmlns="http://www.w3.org/2000/svg">
<rect width="55" height="50" fill="white"/>
<path d="M27.9966 36.0674L18 36.0254" stroke="#706378"/>
<path d="M16.0255 24.6167L16.0612 15" stroke="#706378"/>
<path d="M41.0801 32.997L41.0956 23.4957" stroke="#706378"/>
<path d="M36.9996 11.0607L28.0006 10.9393" stroke="#706378"/>
<path d="M28.0279 36.6168L28.0001 27.0001" stroke="#706378"/>
<path d="M32 24.4024C32 26.283 30.4322 27.8063 28.5 27.8063C26.5678 27.8063 25 26.283 25 24.4024C25 22.5233 26.5678 21 28.5 21C30.4322 21 32 22.5233 32 24.4024Z" fill="#DC7B81"/>
<path d="M41.1584 10.755C41.0645 12.0952 39.8712 13.1067 38.4942 13.0155C37.1173 12.9243 36.076 11.7648 36.1699 10.4247C36.2637 9.08554 37.4571 8.07398 38.834 8.16517C40.211 8.25636 41.2522 9.41591 41.1584 10.755Z" fill="#DC7B81"/>
<path d="M35.9422 13.5149C35.9069 14.0195 35.4576 14.4004 34.9391 14.366C34.4207 14.3317 34.0286 13.8951 34.064 13.3905C34.0993 12.8863 34.5486 12.5054 35.0671 12.5398C35.5855 12.5741 35.9775 13.0107 35.9422 13.5149Z" fill="#DC7B81"/>
<path d="M21.9422 20.3211C21.9069 20.8256 21.4576 21.2065 20.9391 21.1722C20.4207 21.1378 20.0286 20.7013 20.064 20.1967C20.0993 19.6925 20.5486 19.3116 21.0671 19.3459C21.5855 19.3803 21.9775 19.8169 21.9422 20.3211Z" fill="#DC7B81"/>
<path d="M43.9422 29.072C43.9069 29.5766 43.4576 29.9575 42.9391 29.9232C42.4207 29.8888 42.0286 29.4522 42.064 28.9476C42.0993 28.4434 42.5486 28.0626 43.0671 28.0969C43.5855 28.1312 43.9775 28.5678 43.9422 29.072Z" fill="#DC7B81"/>
<path d="M26.9422 34.0374C26.9069 34.542 26.4576 34.9228 25.9391 34.8885C25.4207 34.8542 25.0286 34.4176 25.064 33.913C25.0993 33.4088 25.5486 33.0279 26.0671 33.0622C26.5855 33.0966 26.9775 33.5332 26.9422 34.0374Z" fill="#DC7B81"/>
<path d="M14.9422 28.0996C14.9069 28.6042 14.4576 28.9851 13.9391 28.9507C13.4207 28.9164 13.0286 28.4798 13.064 27.9752C13.0993 27.471 13.5486 27.0902 14.0671 27.1245C14.5855 27.1588 14.9775 27.5954 14.9422 28.0996Z" fill="#DC7B81"/>
<path d="M26.9422 7.68092C26.9069 8.18551 26.4576 8.56638 25.9391 8.53204C25.4207 8.49771 25.0286 8.06112 25.064 7.55653C25.0993 7.05233 25.5486 6.67146 26.0671 6.70579C26.5855 6.74013 26.9775 7.17672 26.9422 7.68092Z" fill="#DC7B81"/>
<path d="M33.9422 27.0374C33.9069 27.542 33.4576 27.9228 32.9391 27.8885C32.4207 27.8542 32.0286 27.4176 32.064 26.913C32.0993 26.4088 32.5486 26.0279 33.0671 26.0622C33.5855 26.0966 33.9775 26.5332 33.9422 27.0374Z" fill="#DC7B81"/>
<path d="M18.1584 13.755C18.0645 15.0952 16.8712 16.1067 15.4942 16.0155C14.1173 15.9243 13.076 14.7648 13.1699 13.4247C13.2637 12.0855 14.4571 11.074 15.834 11.1652C17.211 11.2564 18.2522 12.4159 18.1584 13.755Z" fill="#DC7B81"/>
<path d="M43.9717 34.43C43.9874 35.7731 42.8928 36.8732 41.5283 36.8882C40.1637 36.9032 39.0439 35.8275 39.0283 34.4844C39.0127 33.1423 40.1072 32.0422 41.4718 32.0272C42.8363 32.0122 43.9561 33.088 43.9717 34.43Z" fill="#DC7B81"/>
<path d="M18.9717 36.43C18.9874 37.7731 17.8928 38.8732 16.5283 38.8882C15.1637 38.9032 14.0439 37.8275 14.0283 36.4844C14.0127 35.1423 15.1072 34.0422 16.4718 34.0272C17.8363 34.0122 18.9561 35.088 18.9717 36.43Z" fill="#DC7B81"/>
<path d="M28.4618 20.9966L28.5 11" stroke="#706378"/>
<path d="M40.9963 24L31.8996 24.1041" stroke="#706378"/>
<path d="M25.0839 24.008L16.0002 24.1119" stroke="#706378"/>
</svg>
