<svg width="191" height="121" viewBox="0 0 191 121" fill="none" xmlns="http://www.w3.org/2000/svg">
<g opacity="0.95">
<g filter="url(#filter0_bd_162_444)">
<rect x="30" y="26" width="131" height="61" rx="20" fill="#1A1A1A" fill-opacity="0.65" shape-rendering="crispEdges"/>
<rect x="30.5" y="26.5" width="130" height="60" rx="19.5" stroke="url(#paint0_linear_162_444)" shape-rendering="crispEdges"/>
</g>
<path d="M49.28 50V38.48H50.456V50H49.28ZM56.5264 50.24C55.721 50.24 55.033 50.04 54.4624 49.64C53.8917 49.2347 53.4544 48.688 53.1504 48C52.8464 47.312 52.6944 46.536 52.6944 45.672C52.6944 44.8133 52.8437 44.04 53.1424 43.352C53.4464 42.664 53.881 42.12 54.4464 41.72C55.0117 41.32 55.689 41.12 56.4784 41.12C57.289 41.12 57.9717 41.3173 58.5264 41.712C59.081 42.1067 59.4997 42.648 59.7824 43.336C60.0704 44.0187 60.2144 44.7973 60.2144 45.672C60.2144 46.5307 60.073 47.3067 59.7904 48C59.5077 48.688 59.0917 49.2347 58.5424 49.64C57.993 50.04 57.321 50.24 56.5264 50.24ZM56.6464 49.144C57.2597 49.144 57.7664 48.9947 58.1664 48.696C58.5664 48.3973 58.865 47.9867 59.0624 47.464C59.2597 46.936 59.3584 46.3387 59.3584 45.672C59.3584 44.9947 59.2597 44.3973 59.0624 43.88C58.865 43.3573 58.5664 42.9493 58.1664 42.656C57.7717 42.3627 57.273 42.216 56.6704 42.216C56.0517 42.216 55.5397 42.368 55.1344 42.672C54.729 42.976 54.4277 43.3893 54.2304 43.912C54.0384 44.4347 53.9424 45.0213 53.9424 45.672C53.9424 46.328 54.041 46.92 54.2384 47.448C54.441 47.9707 54.7424 48.384 55.1424 48.688C55.5424 48.992 56.0437 49.144 56.6464 49.144ZM59.3584 50V43.496H59.2304V38.48H60.4144V50H59.3584ZM66.6348 50.24C65.7921 50.24 65.0614 50.0533 64.4428 49.68C63.8294 49.3067 63.3521 48.7813 63.0108 48.104C62.6694 47.4267 62.4988 46.632 62.4988 45.72C62.4988 44.776 62.6668 43.96 63.0028 43.272C63.3388 42.584 63.8108 42.0533 64.4188 41.68C65.0321 41.3067 65.7548 41.12 66.5868 41.12C67.4401 41.12 68.1681 41.3173 68.7708 41.712C69.3734 42.1013 69.8294 42.6613 70.1388 43.392C70.4481 44.1227 70.5894 44.9947 70.5628 46.008H69.3628V45.592C69.3414 44.472 69.0988 43.6267 68.6348 43.056C68.1761 42.4853 67.5041 42.2 66.6188 42.2C65.6908 42.2 64.9788 42.5013 64.4828 43.104C63.9921 43.7067 63.7468 44.5653 63.7468 45.68C63.7468 46.768 63.9921 47.6133 64.4828 48.216C64.9788 48.8133 65.6801 49.112 66.5868 49.112C67.2054 49.112 67.7441 48.9707 68.2028 48.688C68.6668 48.4 69.0321 47.9867 69.2988 47.448L70.3948 47.872C70.0534 48.624 69.5494 49.208 68.8828 49.624C68.2214 50.0347 67.4721 50.24 66.6348 50.24ZM63.3308 46.008V45.024H69.9308V46.008H63.3308ZM78.6637 50V45.592C78.6637 45.112 78.6184 44.672 78.5277 44.272C78.4371 43.8667 78.2904 43.5147 78.0877 43.216C77.8904 42.912 77.6317 42.6773 77.3117 42.512C76.9971 42.3467 76.6131 42.264 76.1597 42.264C75.7437 42.264 75.3757 42.336 75.0557 42.48C74.7411 42.624 74.4744 42.832 74.2557 43.104C74.0424 43.3707 73.8797 43.696 73.7677 44.08C73.6557 44.464 73.5997 44.9013 73.5997 45.392L72.7677 45.208C72.7677 44.3227 72.9224 43.5787 73.2317 42.976C73.5411 42.3733 73.9677 41.9173 74.5117 41.608C75.0557 41.2987 75.6797 41.144 76.3837 41.144C76.9011 41.144 77.3517 41.224 77.7357 41.384C78.1251 41.544 78.4531 41.76 78.7197 42.032C78.9917 42.304 79.2104 42.616 79.3757 42.968C79.5411 43.3147 79.6611 43.6853 79.7357 44.08C79.8104 44.4693 79.8477 44.8587 79.8477 45.248V50H78.6637ZM72.4157 50V41.36H73.4797V43.488H73.5997V50H72.4157ZM86.9477 50C86.4624 50.1013 85.9824 50.1413 85.5077 50.12C85.0384 50.0987 84.6171 49.9973 84.2437 49.816C83.8757 49.6347 83.5957 49.352 83.4037 48.968C83.2491 48.648 83.1637 48.3253 83.1477 48C83.1371 47.6693 83.1317 47.2933 83.1317 46.872V38.96H84.2997V46.824C84.2997 47.1867 84.3024 47.4907 84.3077 47.736C84.3184 47.976 84.3744 48.1893 84.4757 48.376C84.6677 48.7333 84.9717 48.9467 85.3877 49.016C85.8091 49.0853 86.3291 49.0693 86.9477 48.968V50ZM81.2837 42.368V41.36H86.9477V42.368H81.2837ZM89.13 39.72V38.4H90.306V39.72H89.13ZM89.13 50V41.36H90.306V50H89.13ZM93.8804 50V40.72C93.8804 40.496 93.891 40.2747 93.9124 40.056C93.939 39.8373 93.9897 39.6293 94.0644 39.432C94.139 39.2293 94.2564 39.0427 94.4164 38.872C94.5924 38.68 94.7844 38.5413 94.9924 38.456C95.2004 38.3653 95.4164 38.3067 95.6404 38.28C95.8697 38.2533 96.0937 38.24 96.3124 38.24H97.4164V39.232H96.3924C95.9444 39.232 95.6084 39.3413 95.3844 39.56C95.1657 39.7787 95.0564 40.1227 95.0564 40.592V50H93.8804ZM92.3844 42.368V41.36H97.4164V42.368H92.3844ZM99.0964 39.72V38.4H100.272V39.72H99.0964ZM99.0964 50V41.36H100.272V50H99.0964ZM106.641 50.24C105.798 50.24 105.068 50.0533 104.449 49.68C103.836 49.3067 103.358 48.7813 103.017 48.104C102.676 47.4267 102.505 46.632 102.505 45.72C102.505 44.776 102.673 43.96 103.009 43.272C103.345 42.584 103.817 42.0533 104.425 41.68C105.038 41.3067 105.761 41.12 106.593 41.12C107.446 41.12 108.174 41.3173 108.777 41.712C109.38 42.1013 109.836 42.6613 110.145 43.392C110.454 44.1227 110.596 44.9947 110.569 46.008H109.369V45.592C109.348 44.472 109.105 43.6267 108.641 43.056C108.182 42.4853 107.51 42.2 106.625 42.2C105.697 42.2 104.985 42.5013 104.489 43.104C103.998 43.7067 103.753 44.5653 103.753 45.68C103.753 46.768 103.998 47.6133 104.489 48.216C104.985 48.8133 105.686 49.112 106.593 49.112C107.212 49.112 107.75 48.9707 108.209 48.688C108.673 48.4 109.038 47.9867 109.305 47.448L110.401 47.872C110.06 48.624 109.556 49.208 108.889 49.624C108.228 50.0347 107.478 50.24 106.641 50.24ZM103.337 46.008V45.024H109.937V46.008H103.337ZM116.016 50.24C115.211 50.24 114.523 50.04 113.952 49.64C113.382 49.2347 112.944 48.688 112.64 48C112.336 47.312 112.184 46.536 112.184 45.672C112.184 44.8133 112.334 44.04 112.632 43.352C112.936 42.664 113.371 42.12 113.936 41.72C114.502 41.32 115.179 41.12 115.968 41.12C116.779 41.12 117.462 41.3173 118.016 41.712C118.571 42.1067 118.99 42.648 119.272 43.336C119.56 44.0187 119.704 44.7973 119.704 45.672C119.704 46.5307 119.563 47.3067 119.28 48C118.998 48.688 118.582 49.2347 118.032 49.64C117.483 50.04 116.811 50.24 116.016 50.24ZM116.136 49.144C116.75 49.144 117.256 48.9947 117.656 48.696C118.056 48.3973 118.355 47.9867 118.552 47.464C118.75 46.936 118.848 46.3387 118.848 45.672C118.848 44.9947 118.75 44.3973 118.552 43.88C118.355 43.3573 118.056 42.9493 117.656 42.656C117.262 42.3627 116.763 42.216 116.16 42.216C115.542 42.216 115.03 42.368 114.624 42.672C114.219 42.976 113.918 43.3893 113.72 43.912C113.528 44.4347 113.432 45.0213 113.432 45.672C113.432 46.328 113.531 46.92 113.728 47.448C113.931 47.9707 114.232 48.384 114.632 48.688C115.032 48.992 115.534 49.144 116.136 49.144ZM118.848 50V43.496H118.72V38.48H119.904V50H118.848Z" fill="#EEEEEE"/>
<path d="M52.76 73.24C51.8427 73.24 51.0347 73.0533 50.336 72.68C49.6427 72.3067 49.0987 71.7813 48.704 71.104C48.3147 70.4267 48.12 69.632 48.12 68.72V61.496L50.072 61.48V68.672C50.072 69.104 50.144 69.4907 50.288 69.832C50.4373 70.1733 50.6373 70.464 50.888 70.704C51.1387 70.9387 51.4267 71.1173 51.752 71.24C52.0773 71.3627 52.4133 71.424 52.76 71.424C53.1173 71.424 53.456 71.3627 53.776 71.24C54.1013 71.112 54.3893 70.9307 54.64 70.696C54.8907 70.456 55.088 70.1653 55.232 69.824C55.376 69.4827 55.448 69.0987 55.448 68.672V61.48H57.4V68.72C57.4 69.632 57.2027 70.4267 56.808 71.104C56.4187 71.7813 55.8747 72.3067 55.176 72.68C54.4827 73.0533 53.6773 73.24 52.76 73.24ZM64.7076 73.24C63.961 73.24 63.2596 73.1093 62.6036 72.848C61.953 72.5813 61.3796 72.192 60.8836 71.68C60.393 71.168 60.009 70.5413 59.7316 69.8C59.4543 69.0533 59.3156 68.2 59.3156 67.24C59.3156 65.9813 59.5503 64.9067 60.0196 64.016C60.489 63.12 61.1316 62.4347 61.9476 61.96C62.7636 61.48 63.6836 61.24 64.7076 61.24C66.1263 61.24 67.249 61.5707 68.0756 62.232C68.9076 62.888 69.4703 63.8107 69.7636 65L67.7956 65.312C67.577 64.6293 67.2196 64.0853 66.7236 63.68C66.2276 63.2693 65.5956 63.064 64.8276 63.064C64.0543 63.0533 63.4116 63.2213 62.8996 63.568C62.3876 63.9147 62.001 64.4027 61.7396 65.032C61.4836 65.6613 61.3556 66.3973 61.3556 67.24C61.3556 68.0827 61.4836 68.816 61.7396 69.44C61.9956 70.0587 62.3796 70.5413 62.8916 70.888C63.409 71.2347 64.0543 71.4133 64.8276 71.424C65.409 71.4293 65.9183 71.3253 66.3556 71.112C66.793 70.8933 67.1503 70.5653 67.4276 70.128C67.705 69.6853 67.8916 69.1333 67.9876 68.472H65.9556V66.96H70.0356C70.0463 67.0453 70.0543 67.1707 70.0596 67.336C70.065 67.5013 70.0676 67.6 70.0676 67.632C70.0676 68.72 69.8516 69.688 69.4196 70.536C68.993 71.3787 68.3796 72.04 67.5796 72.52C66.7796 73 65.8223 73.24 64.7076 73.24ZM79.6615 73.24C78.8455 73.24 78.1255 73.0667 77.5015 72.72C76.8775 72.368 76.3895 71.88 76.0375 71.256C75.6908 70.632 75.5175 69.912 75.5175 69.096V65.384C75.5175 64.568 75.6908 63.848 76.0375 63.224C76.3895 62.6 76.8775 62.1147 77.5015 61.768C78.1255 61.416 78.8455 61.24 79.6615 61.24C80.4775 61.24 81.1948 61.416 81.8135 61.768C82.4375 62.1147 82.9255 62.6 83.2775 63.224C83.6295 63.848 83.8055 64.568 83.8055 65.384V69.096C83.8055 69.912 83.6295 70.632 83.2775 71.256C82.9255 71.88 82.4375 72.368 81.8135 72.72C81.1948 73.0667 80.4775 73.24 79.6615 73.24ZM79.6615 71.408C80.0668 71.408 80.4348 71.312 80.7655 71.12C81.0962 70.9227 81.3575 70.6613 81.5495 70.336C81.7415 70.0053 81.8375 69.6373 81.8375 69.232V65.24C81.8375 64.8293 81.7415 64.4613 81.5495 64.136C81.3575 63.8053 81.0962 63.544 80.7655 63.352C80.4348 63.1547 80.0668 63.056 79.6615 63.056C79.2562 63.056 78.8882 63.1547 78.5575 63.352C78.2268 63.544 77.9655 63.8053 77.7735 64.136C77.5815 64.4613 77.4855 64.8293 77.4855 65.24V69.232C77.4855 69.6373 77.5815 70.0053 77.7735 70.336C77.9655 70.6613 78.2268 70.9227 78.5575 71.12C78.8882 71.312 79.2562 71.408 79.6615 71.408ZM90.5127 73.24C89.6967 73.24 88.9767 73.0667 88.3527 72.72C87.7287 72.368 87.2407 71.88 86.8887 71.256C86.5421 70.632 86.3687 69.912 86.3687 69.096V65.384C86.3687 64.568 86.5421 63.848 86.8887 63.224C87.2407 62.6 87.7287 62.1147 88.3527 61.768C88.9767 61.416 89.6967 61.24 90.5127 61.24C91.3287 61.24 92.0461 61.416 92.6647 61.768C93.2887 62.1147 93.7767 62.6 94.1287 63.224C94.4807 63.848 94.6567 64.568 94.6567 65.384V69.096C94.6567 69.912 94.4807 70.632 94.1287 71.256C93.7767 71.88 93.2887 72.368 92.6647 72.72C92.0461 73.0667 91.3287 73.24 90.5127 73.24ZM90.5127 71.408C90.9181 71.408 91.2861 71.312 91.6167 71.12C91.9474 70.9227 92.2087 70.6613 92.4007 70.336C92.5927 70.0053 92.6887 69.6373 92.6887 69.232V65.24C92.6887 64.8293 92.5927 64.4613 92.4007 64.136C92.2087 63.8053 91.9474 63.544 91.6167 63.352C91.2861 63.1547 90.9181 63.056 90.5127 63.056C90.1074 63.056 89.7394 63.1547 89.4087 63.352C89.0781 63.544 88.8167 63.8053 88.6247 64.136C88.4327 64.4613 88.3367 64.8293 88.3367 65.24V69.232C88.3367 69.6373 88.4327 70.0053 88.6247 70.336C88.8167 70.6613 89.0781 70.9227 89.4087 71.12C89.7394 71.312 90.1074 71.408 90.5127 71.408ZM101.364 73.24C100.548 73.24 99.828 73.0667 99.204 72.72C98.58 72.368 98.092 71.88 97.74 71.256C97.3933 70.632 97.22 69.912 97.22 69.096V65.384C97.22 64.568 97.3933 63.848 97.74 63.224C98.092 62.6 98.58 62.1147 99.204 61.768C99.828 61.416 100.548 61.24 101.364 61.24C102.18 61.24 102.897 61.416 103.516 61.768C104.14 62.1147 104.628 62.6 104.98 63.224C105.332 63.848 105.508 64.568 105.508 65.384V69.096C105.508 69.912 105.332 70.632 104.98 71.256C104.628 71.88 104.14 72.368 103.516 72.72C102.897 73.0667 102.18 73.24 101.364 73.24ZM101.364 71.408C101.769 71.408 102.137 71.312 102.468 71.12C102.799 70.9227 103.06 70.6613 103.252 70.336C103.444 70.0053 103.54 69.6373 103.54 69.232V65.24C103.54 64.8293 103.444 64.4613 103.252 64.136C103.06 63.8053 102.799 63.544 102.468 63.352C102.137 63.1547 101.769 63.056 101.364 63.056C100.959 63.056 100.591 63.1547 100.26 63.352C99.9293 63.544 99.668 63.8053 99.476 64.136C99.284 64.4613 99.188 64.8293 99.188 65.24V69.232C99.188 69.6373 99.284 70.0053 99.476 70.336C99.668 70.6613 99.9293 70.9227 100.26 71.12C100.591 71.312 100.959 71.408 101.364 71.408ZM110.071 73V63.584L107.911 64.904V62.776L110.071 61.48H112.039V73H110.071ZM115.087 72.984V71.304L120.015 66.912C120.399 66.5707 120.666 66.248 120.815 65.944C120.964 65.64 121.039 65.3467 121.039 65.064C121.039 64.68 120.956 64.3387 120.791 64.04C120.626 63.736 120.396 63.496 120.103 63.32C119.815 63.144 119.482 63.056 119.103 63.056C118.703 63.056 118.348 63.1493 118.039 63.336C117.735 63.5173 117.498 63.76 117.327 64.064C117.156 64.368 117.076 64.696 117.087 65.048H115.103C115.103 64.28 115.274 63.6107 115.615 63.04C115.962 62.4693 116.436 62.0267 117.039 61.712C117.647 61.3973 118.348 61.24 119.143 61.24C119.879 61.24 120.54 61.4053 121.127 61.736C121.714 62.0613 122.175 62.5147 122.511 63.096C122.847 63.672 123.015 64.336 123.015 65.088C123.015 65.6373 122.94 66.0987 122.791 66.472C122.642 66.8453 122.418 67.1893 122.119 67.504C121.826 67.8187 121.46 68.168 121.023 68.552L117.527 71.648L117.351 71.168H123.015V72.984H115.087ZM125.258 73V61.48H132.194V63.408H127.186V66.28H131.234V68.2H127.186V73H125.258Z" fill="#D4D4D4" fill-opacity="0.933333"/>
</g>
<defs>
<filter id="filter0_bd_162_444" x="-30" y="-34" width="251" height="181" filterUnits="userSpaceOnUse" color-interpolation-filters="sRGB">
<feFlood flood-opacity="0" result="BackgroundImageFix"/>
<feGaussianBlur in="BackgroundImageFix" stdDeviation="30"/>
<feComposite in2="SourceAlpha" operator="in" result="effect1_backgroundBlur_162_444"/>
<feColorMatrix in="SourceAlpha" type="matrix" values="0 0 0 0 0 0 0 0 0 0 0 0 0 0 0 0 0 0 127 0" result="hardAlpha"/>
<feOffset dy="4"/>
<feGaussianBlur stdDeviation="15"/>
<feComposite in2="hardAlpha" operator="out"/>
<feColorMatrix type="matrix" values="0 0 0 0 0 0 0 0 0 0 0 0 0 0 0 0 0 0 0.3 0"/>
<feBlend mode="normal" in2="effect1_backgroundBlur_162_444" result="effect2_dropShadow_162_444"/>
<feBlend mode="normal" in="SourceGraphic" in2="effect2_dropShadow_162_444" result="shape"/>
</filter>
<linearGradient id="paint0_linear_162_444" x1="30" y1="28.0848" x2="84.9225" y2="125.867" gradientUnits="userSpaceOnUse">
<stop stop-color="white" stop-opacity="0.15"/>
<stop offset="1" stop-color="white" stop-opacity="0"/>
</linearGradient>
</defs>
</svg>
